<?xml version="1.0" standalone="no"?>
<!DOCTYPE svg PUBLIC "-//W3C//DTD SVG 20010904//EN"
 "http://www.w3.org/TR/2001/REC-SVG-20010904/DTD/svg10.dtd">
<svg version="1.0" xmlns="http://www.w3.org/2000/svg"
 width="260.000000pt" height="260.000000pt" viewBox="0 0 260.000000 260.000000"
 preserveAspectRatio="xMidYMid meet">
<metadata>
Created by potrace 1.14, written by Peter Selinger 2001-2017
</metadata>
<g transform="translate(0.000000,260.000000) scale(0.100000,-0.100000)"
fill="#000000" stroke="none">
<path d="M244 1683 c1 -617 -2 -920 -9 -927 -6 -6 -10 -48 -10 -93 0 -94 13
-113 71 -106 31 3 46 -9 26 -21 -5 -3 -9 -24 -10 -46 -1 -31 2 -40 12 -38 8 2
15 -1 15 -7 1 -5 -4 -10 -10 -10 -6 0 -16 -7 -23 -16 -6 -9 -20 -18 -31 -20
-10 -2 -31 -22 -46 -44 -24 -34 -26 -42 -14 -55 12 -14 11 -17 -5 -28 -22 -13
-29 -85 -10 -97 6 -4 10 -14 8 -24 -1 -9 7 -27 18 -39 15 -16 20 -33 18 -53
-4 -28 13 -59 32 -59 4 0 16 7 26 17 17 15 19 15 36 0 19 -17 67 -24 58 -8 -9
13 18 31 33 22 7 -5 11 -12 9 -17 -7 -18 42 -16 50 3 10 25 32 27 32 3 0 -27
37 -26 67 2 l23 21 0 -21 c0 -18 6 -22 29 -22 21 0 28 5 27 16 -2 25 21 28 29
5 8 -25 50 -29 59 -6 7 19 35 19 42 0 9 -22 39 -18 50 5 l9 21 23 -21 c15 -14
29 -19 40 -14 30 13 44 13 62 1 26 -16 50 7 50 49 0 19 5 34 11 34 6 0 9 6 6
14 -3 8 1 17 9 20 9 3 12 10 9 16 -3 6 0 12 7 15 14 6 15 74 2 104 -4 9 -8 31
-9 50 -1 27 -12 43 -54 82 -29 26 -58 46 -66 43 -7 -3 -16 -1 -19 4 -3 5 2 12
13 15 21 5 26 58 10 90 -10 17 -7 18 35 14 27 -2 50 1 55 7 9 13 7 181 -3 211
-8 23 -14 894 -6 896 3 1 125 2 273 3 l267 1 0 -45 c3 -413 0 -853 -7 -862 -4
-7 -8 -55 -8 -106 0 -91 0 -93 25 -99 14 -4 33 -6 43 -5 9 0 17 -3 18 -9 3
-36 2 -67 -5 -77 -6 -11 5 -17 27 -13 4 0 7 -6 7 -14 0 -8 -3 -14 -7 -13 -19
4 -62 -23 -94 -59 -27 -29 -35 -47 -34 -73 1 -23 -5 -39 -17 -48 -14 -10 -16
-17 -8 -27 6 -7 10 -26 8 -41 -1 -17 6 -39 17 -51 10 -13 20 -37 21 -55 2 -59
14 -79 43 -76 14 2 26 9 26 16 0 6 3 12 8 12 4 0 12 0 17 0 6 0 10 -7 10 -15
0 -9 9 -15 25 -15 15 0 25 6 25 14 0 26 21 29 41 7 24 -25 38 -26 54 -5 11 16
14 16 43 -2 32 -18 32 -18 48 5 l16 22 15 -20 c18 -26 38 -27 56 -1 l14 20 18
-20 c23 -25 37 -25 54 -1 14 19 14 19 34 0 20 -18 68 -27 66 -11 -4 21 3 30
20 25 12 -3 17 -11 14 -19 -3 -10 3 -14 20 -14 17 0 26 7 31 22 l6 23 15 -22
c9 -13 27 -23 41 -23 22 0 24 4 24 45 0 25 5 45 10 45 6 0 18 17 26 38 9 20
20 45 25 54 14 27 11 49 -8 71 -10 10 -18 33 -19 51 -2 45 -20 83 -43 91 -12
3 -21 11 -21 16 0 5 -9 9 -19 9 -11 0 -23 5 -26 10 -4 6 -10 8 -15 5 -5 -3
-11 -1 -15 5 -6 9 7 14 28 11 4 0 7 24 7 54 l0 54 38 -2 c58 -3 68 14 67 115
0 47 -5 92 -10 99 -7 9 -10 340 -9 922 l1 907 -1057 0 -1056 0 0 -917z"/>
</g>
</svg>
